<svg width="32" height="32" viewBox="0 0 32 32" fill="none" xmlns="http://www.w3.org/2000/svg">
  <!-- Orange cat head -->
  <circle cx="16" cy="16" r="14" fill="#F7931A"/>

  <!-- Cat ears -->
  <ellipse cx="10" cy="10" rx="4" ry="6" fill="#E67E00"/>
  <ellipse cx="22" cy="10" rx="4" ry="6" fill="#E67E00"/>

  <!-- Inner ears -->
  <ellipse cx="10" cy="10" rx="2" ry="3" fill="#FF8C42"/>
  <ellipse cx="22" cy="10" rx="2" ry="3" fill="#FF8C42"/>

  <!-- Cat eyes (kawaii style) -->
  <circle cx="12" cy="14" r="3" fill="white"/>
  <circle cx="20" cy="14" r="3" fill="white"/>

  <!-- Eye pupils -->
  <circle cx="12" cy="14" r="1.5" fill="black"/>
  <circle cx="20" cy="14" r="1.5" fill="black"/>

  <!-- Eye highlights -->
  <circle cx="13" cy="13" r="0.5" fill="white"/>
  <circle cx="21" cy="13" r="0.5" fill="white"/>

  <!-- Cat nose -->
  <ellipse cx="16" cy="17" rx="1.5" ry="1" fill="#E67E00"/>

  <!-- Cat mouth (kawaii smile) -->
  <path d="M14 19 Q16 21 18 19" stroke="#E67E00" stroke-width="1.5" fill="none" stroke-linecap="round"/>

  <!-- Whiskers -->
  <line x1="8" y1="15" x2="11" y2="15" stroke="#E67E00" stroke-width="1" stroke-linecap="round"/>
  <line x1="21" y1="15" x2="24" y2="15" stroke="#E67E00" stroke-width="1" stroke-linecap="round"/>
  <line x1="9" y1="18" x2="11" y2="17" stroke="#E67E00" stroke-width="1" stroke-linecap="round"/>
  <line x1="21" y1="17" x2="23" y2="18" stroke="#E67E00" stroke-width="1" stroke-linecap="round"/>

  <!-- Cat body hint -->
  <ellipse cx="16" cy="28" rx="6" ry="4" fill="#F7931A" opacity="0.8"/>
</svg>
